<?xml version="1.0"?>
<svg xmlns="http://www.w3.org/2000/svg" height="512px" viewBox="-18 -128 597.33331 597" width="512px" class=""><g><path d="m240 162.832031c0 16.570313-13.433594 30-30 30s-30-13.429687-30-30c0-16.566406 13.433594-30 30-30s30 13.433594 30 30zm0 0" data-original="#000000" class="active-path" data-old_color="#ee1044" fill="#ee1044"/><path d="m560 321.746094v-327.0625l-120 103.628906v125.28125zm0 0" data-original="#000000" class="active-path" data-old_color="#ee1044" fill="#ee1044"/><path d="m76.792969 162.832031c24.925781 17.871094 88.417969 60 133.207031 60s108.300781-42.117187 133.207031-60c-24.925781-17.871093-88.417969-60-133.207031-60s-108.300781 42.121094-133.207031 60zm183.207031 0c0 27.613281-22.386719 50-50 50s-50-22.386719-50-50c0-27.609375 22.386719-50 50-50 27.601562.035157 49.964844 22.398438 50 50zm0 0" data-original="#000000" class="active-path" data-old_color="#ee1044" fill="#ee1044"/><path d="m420 22.832031c0-16.566406-13.433594-30-30-30h-360c-16.566406 0-30 13.433594-30 30v280c0 16.570313 13.433594 30 30 30h360c16.566406 0 30-13.429687 30-30zm-53.828125 147.871094c-3.75 2.941406-92.691406 72.128906-156.171875 72.128906s-152.421875-69.1875-156.171875-72.128906c-2.417969-1.894531-3.828125-4.796875-3.828125-7.871094 0-3.070312 1.410156-5.976562 3.828125-7.871093 3.75-2.9375 92.691406-72.128907 156.171875-72.128907s152.421875 69.191407 156.171875 72.128907c2.417969 1.894531 3.828125 4.800781 3.828125 7.871093 0 3.074219-1.410156 5.976563-3.828125 7.871094zm0 0" data-original="#000000" class="active-path" data-old_color="#ee1044" fill="#ee1044"/></g> </svg>
