<?xml version="1.0" encoding="iso-8859-1"?>
<!-- Generator: Adobe Illustrator 19.0.0, SVG Export Plug-In . SVG Version: 6.00 Build 0)  -->
<svg xmlns="http://www.w3.org/2000/svg" xmlns:xlink="http://www.w3.org/1999/xlink" version="1.1" id="Layer_1" x="0px" y="0px" viewBox="0 0 330 330" style="enable-background:new 0 0 330 330;" xml:space="preserve" width="512px" height="512px">
<g id="XMLID_861_">
	<path id="XMLID_862_" d="M300.01,114.997c0-3.109-0.959-5.987-2.578-8.382c-0.002-0.002-0.003-0.004-0.005-0.007   c-0.257-0.379-0.53-0.743-0.819-1.096c-0.023-0.029-0.047-0.059-0.07-0.087c-0.273-0.33-0.563-0.645-0.863-0.95   c-0.047-0.047-0.093-0.095-0.141-0.142c-0.131-0.129-0.252-0.27-0.389-0.395L195.597,4.393c-0.311-0.311-0.637-0.602-0.97-0.881   c-0.103-0.086-0.209-0.167-0.314-0.251c-0.24-0.19-0.485-0.374-0.734-0.549c-0.126-0.088-0.253-0.175-0.382-0.26   c-0.259-0.17-0.523-0.329-0.791-0.481c-0.115-0.066-0.229-0.137-0.346-0.2c-0.361-0.193-0.729-0.369-1.102-0.531   c-0.16-0.069-0.324-0.129-0.486-0.193c-0.242-0.095-0.485-0.186-0.732-0.268c-0.181-0.06-0.361-0.118-0.546-0.172   c-0.277-0.081-0.558-0.151-0.839-0.216c-0.143-0.033-0.281-0.072-0.425-0.101c-0.415-0.083-0.835-0.144-1.256-0.191   c-0.138-0.016-0.275-0.025-0.413-0.036c-0.345-0.03-0.689-0.047-1.035-0.053C185.147,0.011,185.07,0,184.99,0h-140   c-8.284,0-15,6.716-15,15v300c0,8.284,6.716,15,15,15h240c8.284,0,15-6.716,15-15V115.384   C299.994,115.254,300.01,115.127,300.01,114.997z M199.99,51.212l48.786,48.785H199.99V51.212z M59.99,300V30h110v84.997   c0,8.284,6.716,15,15,15h85V300H59.99z" fill="#08575b"/>
	<path id="XMLID_866_" d="M212.614,196.969l-70-41.316c-4.636-2.737-10.385-2.779-15.061-0.109   c-4.676,2.67-7.563,7.642-7.563,13.026v82.633c0,5.385,2.887,10.357,7.563,13.026c2.306,1.316,4.872,1.974,7.438,1.974   c2.637,0,5.273-0.695,7.624-2.083l70-41.316c4.571-2.698,7.376-7.61,7.376-12.917S217.186,199.667,212.614,196.969z" fill="#08575b"/>
</g>
<g>
</g>
<g>
</g>
<g>
</g>
<g>
</g>
<g>
</g>
<g>
</g>
<g>
</g>
<g>
</g>
<g>
</g>
<g>
</g>
<g>
</g>
<g>
</g>
<g>
</g>
<g>
</g>
<g>
</g>
</svg>
