<?xml version="1.0"?>
<svg xmlns="http://www.w3.org/2000/svg" xmlns:xlink="http://www.w3.org/1999/xlink" version="1.1" id="Capa_1" x="0px" y="0px" viewBox="0 0 32 32" style="enable-background:new 0 0 32 32;" xml:space="preserve" width="512px" height="512px" class=""><g><g>
	<g>
		<path d="M8,3v6L0,3v20l8-6v6h6.523c1.236,3.493,4.558,5.998,8.477,6c3.917-0.002,7.238-2.507,8.477-6H32V3    H8z M23,26.883c-3.801-0.009-6.876-3.084-6.885-6.883c0.009-3.801,3.084-6.876,6.885-6.885c3.799,0.009,6.874,3.084,6.883,6.885    C29.874,23.799,26.799,26.874,23,26.883z" data-original="#010002" class="active-path" data-old_color="#0172DC" fill="#0171DB"/>
		<polygon points="23,23 27,19 19,19   " data-original="#010002" class="active-path" data-old_color="#0172DC" fill="#0171DB"/>
	</g>
</g></g> </svg>
