<?xml version="1.0" encoding="utf-8"?>
<!-- Generator: Adobe Illustrator 23.0.3, SVG Export Plug-In . SVG Version: 6.00 Build 0)  -->
<svg version="1.1" id="Layer_1" xmlns="http://www.w3.org/2000/svg" xmlns:xlink="http://www.w3.org/1999/xlink" x="0px" y="0px"
	 viewBox="0 0 100 100" style="enable-background:new 0 0 100 100;" xml:space="preserve">
<style type="text/css">
	.st0{fill-rule:evenodd;clip-rule:evenodd; fill:#93a1b5}
</style>
<g>
	<path class="st0" d="M48.73,16.01c-0.96-0.22-1.93,0.38-2.15,1.34s0.38,1.93,1.34,2.15c4.46,1.03,8.53,3.29,11.78,6.54
		c9.55,9.55,9.55,25.1,0,34.66c-9.55,9.56-25.1,9.56-34.66,0c-9.56-9.55-9.56-25.1,0-34.66c2.74-2.74,5.99-4.74,9.65-5.95
		c0.94-0.31,1.45-1.32,1.14-2.26c-0.31-0.94-1.32-1.45-2.26-1.14c-4.2,1.38-7.92,3.67-11.06,6.82c-10.95,10.95-10.95,28.77,0,39.73
		c5.48,5.48,12.67,8.21,19.86,8.21c7.19,0,14.39-2.74,19.86-8.21c10.95-10.95,10.95-28.77,0-39.73
		C58.52,19.78,53.85,17.19,48.73,16.01z"/>
	<path class="st0" d="M93.55,82.74L74.77,63.96c9.63-15.1,7.52-34.94-5.26-47.72C62.27,8.99,52.63,5,42.38,5
		C32.13,5,22.49,8.99,15.25,16.24C8,23.49,4.01,33.12,4.01,43.37c0,10.25,3.99,19.89,11.24,27.13c7.25,7.25,16.88,11.24,27.13,11.24
		c7.36,0,14.44-2.06,20.59-5.98l18.78,18.78c1.57,1.57,3.67,2.44,5.9,2.44c2.23,0,4.33-0.87,5.9-2.44
		C96.81,91.29,96.81,85.99,93.55,82.74z M91.02,92.01c-0.89,0.89-2.09,1.39-3.37,1.39c-1.28,0-2.47-0.49-3.37-1.39L64.46,72.19
		c-0.35-0.35-0.81-0.52-1.27-0.52c-0.36,0-0.71,0.1-1.02,0.32c-5.82,4.04-12.67,6.17-19.8,6.17c-9.29,0-18.03-3.62-24.6-10.19
		c-13.56-13.56-13.56-35.63,0-49.2c6.57-6.57,15.31-10.19,24.6-10.19c9.29,0,18.03,3.62,24.6,10.19
		c11.91,11.91,13.6,30.58,4.01,44.39c-0.49,0.71-0.41,1.68,0.21,2.29l19.82,19.82C92.87,87.13,92.87,90.15,91.02,92.01z"/>
	<path class="st0" d="M53.2,32.55c-0.7-0.7-1.83-0.7-2.53,0l-8.28,8.28l-8.28-8.28c-0.7-0.7-1.83-0.7-2.53,0
		c-0.7,0.7-0.7,1.83,0,2.53l8.28,8.28l-8.28,8.28c-0.7,0.7-0.7,1.83,0,2.53c0.35,0.35,0.81,0.52,1.27,0.52
		c0.46,0,0.92-0.17,1.27-0.52l8.28-8.28l8.28,8.28c0.35,0.35,0.81,0.52,1.27,0.52c0.46,0,0.92-0.17,1.27-0.52
		c0.7-0.7,0.7-1.83,0-2.53l-8.28-8.28l8.28-8.28C53.9,34.39,53.9,33.25,53.2,32.55z"/>
	<path class="st0" d="M41.19,18.89c0.99,0,1.79-0.8,1.79-1.79c0-0.99-0.8-1.79-1.79-1.79c-0.99,0-1.79,0.8-1.79,1.79
		C39.4,18.09,40.2,18.89,41.19,18.89z"/>
</g>
</svg>
